<?xml version="1.0" encoding="UTF-8"?>
<svg id="Layer_2" xmlns="http://www.w3.org/2000/svg" xmlns:xlink="http://www.w3.org/1999/xlink" viewBox="0 0 829.67 209">
  <defs>
    <style>
      .cls-1, .cls-2, .cls-3, .cls-4, .cls-5, .cls-6, .cls-7, .cls-8, .cls-9, .cls-10, .cls-11, .cls-12, .cls-13, .cls-14, .cls-15, .cls-16, .cls-17, .cls-18, .cls-19, .cls-20, .cls-21, .cls-22, .cls-23, .cls-24, .cls-25, .cls-26 {
        stroke-miterlimit: 10;
      }

      .cls-1, .cls-2, .cls-3, .cls-4, .cls-5, .cls-8, .cls-10, .cls-11, .cls-12, .cls-15, .cls-16, .cls-17, .cls-18, .cls-23, .cls-24, .cls-25, .cls-26 {
        fill: none;
      }

      .cls-1, .cls-2, .cls-3, .cls-4, .cls-5, .cls-12, .cls-15, .cls-16 {
        stroke-linecap: round;
      }

      .cls-1, .cls-2, .cls-6, .cls-7, .cls-11, .cls-12, .cls-13, .cls-14, .cls-19, .cls-20, .cls-21, .cls-22 {
        stroke: gray;
      }

      .cls-1, .cls-20, .cls-22 {
        stroke-width: 6px;
      }

      .cls-2, .cls-5, .cls-11, .cls-13, .cls-15, .cls-16, .cls-17, .cls-26 {
        stroke-width: 4px;
      }

      .cls-3, .cls-4, .cls-5, .cls-9, .cls-17, .cls-23 {
        stroke: #000;
      }

      .cls-3, .cls-18 {
        stroke-width: 3px;
      }

      .cls-27 {
        filter: url(#drop-shadow-2);
      }

      .cls-28, .cls-29, .cls-30, .cls-31 {
        font-weight: 700;
      }

      .cls-28, .cls-29, .cls-32, .cls-33, .cls-34 {
        font-family: Arial-BoldMT, Arial;
      }

      .cls-28, .cls-31 {
        font-size: 12px;
      }

      .cls-4, .cls-8, .cls-9, .cls-10, .cls-21, .cls-24, .cls-25 {
        stroke-width: 2px;
      }

      .cls-35, .cls-9, .cls-20 {
        fill: #fff;
      }

      .cls-29, .cls-30 {
        font-size: 14px;
      }

      .cls-6, .cls-13, .cls-21, .cls-22 {
        fill: #999;
      }

      .cls-7 {
        fill: #f2f2f2;
        filter: url(#drop-shadow-3);
      }

      .cls-8, .cls-18, .cls-24, .cls-25, .cls-26 {
        stroke: #999;
      }

      .cls-36, .cls-33 {
        letter-spacing: -.07em;
      }

      .cls-31, .cls-37 {
        font-family: Arial-BoldItalicMT, Arial;
        font-style: italic;
      }

      .cls-10 {
        stroke: #333;
      }

      .cls-38 {
        fill: #666;
      }

      .cls-12 {
        stroke-width: 9px;
      }

      .cls-34, .cls-39 {
        letter-spacing: -.04em;
      }

      .cls-40 {
        letter-spacing: -.02em;
      }

      .cls-14 {
        fill: #ccc;
      }

      .cls-41 {
        fill: #333;
      }

      .cls-15 {
        stroke: blue;
      }

      .cls-16 {
        stroke: #ed1c24;
      }

      .cls-17 {
        stroke-dasharray: 2 2;
      }

      .cls-18, .cls-26 {
        stroke-dasharray: 1.5;
      }

      .cls-19, .cls-42 {
        fill: gray;
      }

      .cls-20 {
        filter: url(#drop-shadow-1);
      }

      .cls-23 {
        stroke-width: 5px;
      }

      .cls-24 {
        stroke-dasharray: 1.01 1.01;
      }

      .cls-25 {
        stroke-dasharray: 1 1;
      }
    </style>
    <filter id="drop-shadow-1" filterUnits="userSpaceOnUse">
      <feOffset dx="1" dy="1"/>
      <feGaussianBlur result="blur" stdDeviation="2"/>
      <feFlood flood-color="#000" flood-opacity=".55"/>
      <feComposite in2="blur" operator="in"/>
      <feComposite in="SourceGraphic"/>
    </filter>
    <filter id="drop-shadow-2" filterUnits="userSpaceOnUse">
      <feOffset dx="2" dy="1"/>
      <feGaussianBlur result="blur-2" stdDeviation="3"/>
      <feFlood flood-color="#000" flood-opacity=".55"/>
      <feComposite in2="blur-2" operator="in"/>
      <feComposite in="SourceGraphic"/>
    </filter>
    <filter id="drop-shadow-3" filterUnits="userSpaceOnUse">
      <feOffset dx="1" dy="1"/>
      <feGaussianBlur result="blur-3" stdDeviation="3"/>
      <feFlood flood-color="#000" flood-opacity=".55"/>
      <feComposite in2="blur-3" operator="in"/>
      <feComposite in="SourceGraphic"/>
    </filter>
  </defs>
  <g id="Workflow">
    <rect class="cls-35" x="523" y="19" width="306" height="180"/>
    <polygon class="cls-35" points="469 10 469 199 160.7 199 160.37 198.79 127 172 127 73 160.37 10.43 160.7 10 469 10"/>
    <polygon class="cls-35" points="163 198.79 163.36 199 163 199 163 198.79"/>
    <polygon class="cls-35" points="163.36 10 163 10.43 163 10 163.36 10"/>
    <text class="cls-28" transform="translate(298 32.3)"><tspan x="0" y="0">ISOL</tspan><tspan class="cls-36" x="28" y="0">A</tspan><tspan x="35.78" y="0">TE XLRN</tspan><tspan class="cls-39" x="87.11" y="0">A</tspan></text>
    <text class="cls-28" transform="translate(703 41.3)"><tspan x="0" y="0">ORGANIZED D</tspan><tspan class="cls-36" x="84" y="0">AT</tspan><tspan class="cls-39" x="98.21" y="0">A</tspan></text>
    <text class="cls-31" transform="translate(634.67 41.3)"><tspan x="0" y="0">fastq</tspan></text>
    <text class="cls-31" transform="translate(611.43 77.3)"><tspan class="cls-40" x="0" y="0">T</tspan><tspan x="7.11" y="0">rimmomatic</tspan></text>
    <text class="cls-31" transform="translate(613.67 149.3)"><tspan x="0" y="0">splitFastq.pl</tspan></text>
    <text class="cls-31" transform="translate(627.66 185.3)"><tspan x="0" y="0">FastQC</tspan></text>
    <text class="cls-31" transform="translate(604.32 113.3)"><tspan x="0" y="0">readCollapse.pl</tspan></text>
    <text class="cls-28" transform="translate(703 77.3)"><tspan x="0" y="0">TRIM</tspan><tspan class="cls-39" x="29.33" y="0"> </tspan><tspan x="32.21" y="0">ADAPTERS</tspan></text>
    <text class="cls-28" transform="translate(703 113.3)"><tspan x="0" y="0">DEMU</tspan><tspan class="cls-36" x="35.33" y="0">L</tspan><tspan x="41.77" y="0">TIPLEX</tspan></text>
    <text class="cls-28" transform="translate(703 149.3)"><tspan x="0" y="0">SPLIT B</tspan><tspan class="cls-40" x="46" y="0">Y</tspan><tspan x="53.79" y="0" xml:space="preserve"> BARCODE</tspan></text>
    <text class="cls-28" transform="translate(703 185.3)"><tspan x="0" y="0">QUALIT</tspan><tspan class="cls-40" x="44.66" y="0">Y</tspan><tspan x="52.45" y="0" xml:space="preserve"> CONTRO</tspan><tspan class="cls-40" x="107.78" y="0">L</tspan></text>
    <text class="cls-28" transform="translate(298 68.3)"><tspan x="0" y="0">PROXIMIT</tspan><tspan class="cls-40" x="58" y="0">Y</tspan><tspan x="65.79" y="0" xml:space="preserve"> LIG</tspan><tspan class="cls-36" x="89.12" y="0">A</tspan><tspan x="96.9" y="0">TION</tspan></text>
    <text class="cls-28" transform="translate(298 95.3)"><tspan x="0" y="0">CROSSLINK REVERSA</tspan><tspan class="cls-40" x="132.02" y="0">L</tspan></text>
    <text class="cls-28" transform="translate(298 113.3)"><tspan x="0" y="0">ADAPTER LIG</tspan><tspan class="cls-36" x="81.33" y="0">A</tspan><tspan x="89.11" y="0">TION</tspan></text>
    <text class="cls-28" transform="translate(298 140.3)"><tspan x="0" y="0">REVERSE TRANSCRIPTION</tspan></text>
    <g>
      <path d="M298.92,173.8v-8.52h1.73v7.07h4.31v1.45h-6.05Z"/>
      <path d="M306.15,173.8v-8.59h1.73v8.59h-1.73Z"/>
      <path d="M309.54,165.21h3.43c.68,0,1.19.03,1.52.08s.63.17.9.35.48.42.66.72.26.63.26,1c0,.4-.11.77-.33,1.11s-.51.59-.88.76c.52.15.93.41,1.21.78s.42.8.42,1.29c0,.39-.09.77-.27,1.14s-.43.66-.74.88-.7.36-1.16.41c-.29.03-.99.05-2.09.06h-2.92v-8.59ZM311.28,166.64v1.99h1.14c.68,0,1.1,0,1.26-.03.3-.04.53-.14.7-.31s.25-.39.25-.67-.07-.48-.22-.65-.36-.27-.65-.3c-.17-.02-.67-.03-1.48-.03h-1ZM311.28,170.05v2.3h1.61c.62,0,1.02-.02,1.19-.05.26-.05.47-.16.63-.34s.24-.42.24-.73c0-.26-.06-.48-.19-.66s-.31-.31-.54-.39-.75-.12-1.54-.12h-1.4Z"/>
      <path d="M318.21,173.8v-8.59h3.65c.92,0,1.58.08,2,.23s.75.43,1,.82.38.85.38,1.35c0,.64-.19,1.18-.57,1.6s-.95.68-1.7.79c.38.22.68.46.93.72s.57.73.99,1.39l1.05,1.68h-2.07l-1.25-1.87c-.45-.67-.75-1.09-.91-1.26s-.34-.29-.52-.36-.47-.1-.87-.1h-.35v3.59h-1.73ZM319.94,168.84h1.28c.83,0,1.35-.04,1.56-.11s.37-.19.49-.36.18-.39.18-.64c0-.29-.08-.52-.23-.7s-.37-.29-.65-.34c-.14-.02-.56-.03-1.27-.03h-1.35v2.18Z"/>
      <path d="M334.62,173.8h-1.89l-.75-1.95h-3.43l-.71,1.95h-1.84l3.35-8.59h1.83l3.44,8.59ZM331.42,170.4l-1.18-3.19-1.16,3.19h2.34Z"/>
      <path d="M335.54,173.8v-8.59h3.65c.92,0,1.58.08,2,.23s.75.43,1,.82.38.85.38,1.35c0,.64-.19,1.18-.57,1.6s-.95.68-1.7.79c.38.22.68.46.93.72s.57.73.99,1.39l1.05,1.68h-2.07l-1.25-1.87c-.45-.67-.75-1.09-.91-1.26s-.34-.29-.52-.36-.47-.1-.87-.1h-.35v3.59h-1.73ZM337.28,168.84h1.28c.83,0,1.35-.04,1.56-.11s.37-.19.49-.36.18-.39.18-.64c0-.29-.08-.52-.23-.7s-.37-.29-.65-.34c-.14-.02-.56-.03-1.27-.03h-1.35v2.18Z"/>
      <path d="M346.01,173.8v-3.62l-3.15-4.97h2.03l2.02,3.4,1.98-3.4h2l-3.16,4.99v3.6h-1.73Z"/>
      <path d="M354.88,173.8v-8.59h2.78c1.05,0,1.74.04,2.06.13.49.13.9.41,1.24.84s.5.99.5,1.67c0,.53-.1.97-.29,1.33s-.43.64-.73.85-.59.34-.9.41c-.41.08-1.01.12-1.8.12h-1.13v3.24h-1.73ZM356.61,166.66v2.44h.95c.68,0,1.14-.04,1.37-.13s.41-.23.54-.42.2-.41.2-.67c0-.31-.09-.57-.28-.77s-.42-.33-.7-.38c-.21-.04-.62-.06-1.25-.06h-.84Z"/>
      <path d="M368.38,170.64l1.68.53c-.26.94-.69,1.63-1.29,2.09s-1.36.68-2.28.68c-1.14,0-2.08-.39-2.81-1.17s-1.1-1.84-1.1-3.2c0-1.43.37-2.54,1.11-3.33s1.71-1.19,2.91-1.19c1.05,0,1.9.31,2.56.93.39.37.68.89.88,1.58l-1.72.41c-.1-.45-.31-.8-.64-1.05s-.71-.39-1.17-.39c-.64,0-1.15.23-1.55.69s-.59,1.2-.59,2.22c0,1.09.2,1.86.59,2.32s.9.69,1.52.69c.46,0,.86-.15,1.19-.44s.57-.75.71-1.38Z"/>
      <path d="M371.55,173.8v-8.59h3.65c.92,0,1.58.08,2,.23s.75.43,1,.82.38.85.38,1.35c0,.64-.19,1.18-.57,1.6s-.95.68-1.7.79c.38.22.68.46.93.72s.57.73.99,1.39l1.05,1.68h-2.07l-1.25-1.87c-.45-.67-.75-1.09-.91-1.26s-.34-.29-.52-.36-.47-.1-.87-.1h-.35v3.59h-1.73ZM373.29,168.84h1.28c.83,0,1.35-.04,1.56-.11s.37-.19.49-.36.18-.39.18-.64c0-.29-.08-.52-.23-.7s-.37-.29-.65-.34c-.14-.02-.56-.03-1.27-.03h-1.35v2.18Z"/>
      <path d="M385.42,172.56v-2.23h-2.25v-1.54h2.25v-2.23h1.5v2.23h2.26v1.54h-2.26v2.23h-1.5Z"/>
      <path d="M298.89,187.8v-8.59h1.69l3.52,5.74v-5.74h1.61v8.59h-1.74l-3.46-5.6v5.6h-1.61Z"/>
      <path d="M307.54,187.8v-8.59h6.37v1.45h-4.63v1.9h4.31v1.45h-4.31v2.34h4.8v1.45h-6.53Z"/>
      <path d="M314.67,187.8l2.94-4.48-2.66-4.11h2.03l1.72,2.76,1.69-2.76h2.01l-2.67,4.17,2.94,4.42h-2.09l-1.9-2.97-1.91,2.97h-2.08Z"/>
      <path d="M325.48,187.8v-7.14h-2.55v-1.45h6.83v1.45h-2.54v7.14h-1.73Z"/>
      <path d="M338.21,184.64v-1.45h3.74v3.42c-.36.35-.89.66-1.58.93s-1.39.4-2.09.4c-.9,0-1.68-.19-2.35-.57s-1.17-.92-1.51-1.62-.5-1.46-.5-2.29c0-.89.19-1.69.56-2.38s.92-1.23,1.65-1.6c.55-.29,1.24-.43,2.06-.43,1.07,0,1.9.22,2.5.67s.99,1.07,1.16,1.85l-1.72.32c-.12-.42-.35-.75-.68-1s-.75-.37-1.25-.37c-.76,0-1.36.24-1.81.72s-.67,1.19-.67,2.14c0,1.02.23,1.78.68,2.29s1.05.76,1.78.76c.36,0,.73-.07,1.09-.21s.68-.32.94-.52v-1.09h-1.99Z"/>
      <path d="M343.54,187.8v-8.59h6.37v1.45h-4.63v1.9h4.31v1.45h-4.31v2.34h4.8v1.45h-6.53Z"/>
      <path d="M351.57,187.8v-8.59h1.69l3.52,5.74v-5.74h1.61v8.59h-1.74l-3.46-5.6v5.6h-1.61Z"/>
      <path d="M363.11,185l1.69-.16c.1.57.31.98.62,1.25s.73.4,1.26.4c.56,0,.98-.12,1.26-.35s.42-.51.42-.83c0-.2-.06-.38-.18-.52s-.33-.27-.62-.37c-.2-.07-.67-.2-1.39-.38-.93-.23-1.58-.51-1.96-.85-.53-.47-.79-1.05-.79-1.73,0-.44.12-.85.37-1.23s.61-.67,1.07-.87,1.03-.3,1.69-.3c1.08,0,1.89.24,2.43.71s.83,1.1.86,1.89l-1.73.08c-.07-.44-.23-.76-.48-.95s-.61-.29-1.1-.29-.9.1-1.18.31c-.18.13-.28.31-.28.53,0,.2.09.38.26.52.22.18.75.38,1.59.57s1.47.41,1.87.62.72.5.95.87.34.83.34,1.37c0,.49-.14.95-.41,1.38s-.66.75-1.16.96-1.12.31-1.87.31c-1.09,0-1.92-.25-2.5-.75s-.93-1.23-1.04-2.19Z"/>
      <path d="M371.55,187.8v-8.59h6.37v1.45h-4.63v1.9h4.31v1.45h-4.31v2.34h4.8v1.45h-6.53Z"/>
      <path d="M386.47,186.71c.43.3.89.55,1.39.73l-.64,1.22c-.26-.08-.52-.19-.77-.32-.05-.03-.44-.28-1.15-.76-.56.25-1.19.37-1.87.37-1.32,0-2.35-.39-3.1-1.17s-1.12-1.87-1.12-3.28.38-2.49,1.12-3.27,1.77-1.17,3.05-1.17,2.28.39,3.03,1.17,1.12,1.87,1.12,3.27c0,.74-.1,1.39-.31,1.96-.16.43-.41.85-.75,1.25ZM385.08,185.73c.22-.26.39-.58.5-.95s.17-.8.17-1.28c0-.99-.22-1.73-.66-2.22s-1.01-.74-1.72-.74-1.28.25-1.72.74-.66,1.23-.66,2.22.22,1.75.66,2.25,1,.75,1.67.75c.25,0,.49-.04.71-.12-.35-.23-.71-.41-1.07-.54l.49-.99c.57.2,1.12.49,1.63.88Z"/>
      <path d="M388.88,179.21h1.73v4.65c0,.74.02,1.22.06,1.44.07.35.25.63.53.85s.66.32,1.15.32.86-.1,1.11-.3.4-.45.45-.74.08-.78.08-1.46v-4.75h1.73v4.51c0,1.03-.05,1.76-.14,2.19s-.27.79-.52,1.08-.59.53-1.01.7-.97.26-1.65.26c-.82,0-1.44-.09-1.87-.28s-.76-.44-1-.74-.41-.62-.49-.95c-.11-.49-.17-1.22-.17-2.18v-4.58Z"/>
      <path d="M397.56,187.8v-8.59h6.37v1.45h-4.63v1.9h4.31v1.45h-4.31v2.34h4.8v1.45h-6.53Z"/>
      <path d="M405.58,187.8v-8.59h1.69l3.52,5.74v-5.74h1.61v8.59h-1.74l-3.46-5.6v5.6h-1.61Z"/>
      <path d="M419.72,184.64l1.68.53c-.26.94-.69,1.63-1.29,2.09s-1.36.68-2.28.68c-1.14,0-2.08-.39-2.81-1.17s-1.1-1.84-1.1-3.2c0-1.43.37-2.54,1.11-3.33s1.71-1.19,2.91-1.19c1.05,0,1.9.31,2.56.93.39.37.68.89.88,1.58l-1.72.41c-.1-.45-.31-.8-.64-1.05s-.71-.39-1.17-.39c-.64,0-1.15.23-1.55.69s-.59,1.2-.59,2.22c0,1.09.2,1.86.59,2.32s.9.69,1.52.69c.46,0,.86-.15,1.19-.44s.57-.75.71-1.38Z"/>
      <path d="M422.84,187.8v-8.59h1.73v8.59h-1.73Z"/>
      <path d="M426.24,187.8v-8.59h1.69l3.52,5.74v-5.74h1.61v8.59h-1.74l-3.46-5.6v5.6h-1.61Z"/>
      <path d="M438.89,184.64v-1.45h3.74v3.42c-.36.35-.89.66-1.58.93s-1.39.4-2.09.4c-.9,0-1.68-.19-2.35-.57s-1.17-.92-1.51-1.62-.5-1.46-.5-2.29c0-.89.19-1.69.56-2.38s.92-1.23,1.65-1.6c.55-.29,1.24-.43,2.06-.43,1.07,0,1.9.22,2.5.67s.99,1.07,1.16,1.85l-1.72.32c-.12-.42-.35-.75-.68-1s-.75-.37-1.25-.37c-.76,0-1.36.24-1.81.72s-.67,1.19-.67,2.14c0,1.02.23,1.78.68,2.29s1.05.76,1.78.76c.36,0,.73-.07,1.09-.21s.68-.32.94-.52v-1.09h-1.99Z"/>
    </g>
    <g>
      <line class="cls-4" x1="192.25" y1="19" x2="192.25" y2="26.2"/>
      <line class="cls-4" x1="199.75" y1="19" x2="199.75" y2="26.2"/>
      <line class="cls-4" x1="207.25" y1="19" x2="207.25" y2="26.2"/>
      <line class="cls-4" x1="214.75" y1="19" x2="214.75" y2="26.2"/>
      <line class="cls-4" x1="181" y1="19" x2="256" y2="19"/>
      <line class="cls-4" x1="229.75" y1="19" x2="229.75" y2="26.2"/>
      <line class="cls-4" x1="237.25" y1="19" x2="237.25" y2="26.2"/>
      <line class="cls-4" x1="244.75" y1="19" x2="244.75" y2="22.6"/>
      <line class="cls-4" x1="222.25" y1="19" x2="222.25" y2="26.2"/>
      <line class="cls-4" x1="259.75" y1="37" x2="259.75" y2="29.8"/>
      <line class="cls-4" x1="252.25" y1="37" x2="252.25" y2="26.2"/>
      <line class="cls-4" x1="244.75" y1="37" x2="244.75" y2="29.8"/>
      <line class="cls-4" x1="237.25" y1="37" x2="237.25" y2="29.8"/>
      <line class="cls-4" x1="271" y1="37" x2="196" y2="37"/>
      <line class="cls-4" x1="222.25" y1="37" x2="222.25" y2="29.8"/>
      <line class="cls-4" x1="214.75" y1="37" x2="214.75" y2="33.4"/>
      <line class="cls-4" x1="207.25" y1="37" x2="207.25" y2="29.8"/>
      <line class="cls-4" x1="229.75" y1="37" x2="229.75" y2="29.8"/>
      <line class="cls-15" x1="237.25" y1="26.2" x2="229.75" y2="29.8"/>
    </g>
    <g>
      <line class="cls-4" x1="192.25" y1="55" x2="192.25" y2="62.2"/>
      <line class="cls-4" x1="199.75" y1="55" x2="199.75" y2="62.2"/>
      <line class="cls-4" x1="207.25" y1="55" x2="207.25" y2="62.2"/>
      <line class="cls-4" x1="214.75" y1="55" x2="214.75" y2="62.2"/>
      <line class="cls-4" x1="181" y1="55" x2="256" y2="55"/>
      <line class="cls-4" x1="229.75" y1="55" x2="229.75" y2="62.2"/>
      <line class="cls-4" x1="237.25" y1="55" x2="237.25" y2="62.2"/>
      <line class="cls-4" x1="244.75" y1="55" x2="244.75" y2="58.6"/>
      <line class="cls-4" x1="222.25" y1="55" x2="222.25" y2="62.2"/>
      <line class="cls-4" x1="259.75" y1="73" x2="259.75" y2="65.8"/>
      <line class="cls-4" x1="252.25" y1="73" x2="252.25" y2="62.2"/>
      <line class="cls-4" x1="244.75" y1="73" x2="244.75" y2="65.8"/>
      <line class="cls-4" x1="237.25" y1="73" x2="237.25" y2="65.8"/>
      <line class="cls-4" x1="271" y1="73" x2="196" y2="73"/>
      <line class="cls-4" x1="222.25" y1="73" x2="222.25" y2="65.8"/>
      <line class="cls-4" x1="214.75" y1="73" x2="214.75" y2="69.4"/>
      <line class="cls-4" x1="207.25" y1="73" x2="207.25" y2="65.8"/>
      <line class="cls-4" x1="229.75" y1="73" x2="229.75" y2="65.8"/>
      <line class="cls-15" x1="237.25" y1="62.2" x2="229.75" y2="65.8"/>
    </g>
    <g>
      <path class="cls-8" d="M271,55c.17,0,.33,0,.5.01"/>
      <path class="cls-24" d="M272.5,55.13c4.25.72,7.5,4.42,7.5,8.87s-3.5,8.45-8.01,8.95"/>
      <path class="cls-8" d="M271.5,72.99c-.17,0-.33.01-.5.01"/>
    </g>
    <g>
      <polyline class="cls-8" points="253.5 55 253 55 253.5 55"/>
      <line class="cls-25" x1="254.5" y1="55" x2="270" y2="55"/>
      <polyline class="cls-8" points="270.5 55 271 55 270.5 55"/>
      <line class="cls-25" x1="269.5" y1="55" x2="254" y2="55"/>
    </g>
    <line class="cls-5" x1="181" y1="91" x2="226" y2="91"/>
    <line class="cls-5" x1="235" y1="91" x2="280" y2="91"/>
    <line class="cls-26" x1="226" y1="91" x2="235" y2="91"/>
    <line class="cls-5" x1="163" y1="109" x2="208" y2="109"/>
    <line class="cls-5" x1="217" y1="109" x2="262" y2="109"/>
    <line class="cls-26" x1="208" y1="109" x2="217" y2="109"/>
    <line class="cls-16" x1="262" y1="109" x2="289" y2="109"/>
    <line class="cls-5" x1="163" y1="141" x2="208" y2="141"/>
    <line class="cls-5" x1="217" y1="141" x2="262" y2="141"/>
    <line class="cls-26" x1="208" y1="141" x2="217" y2="141"/>
    <line class="cls-16" x1="262" y1="141" x2="289" y2="141"/>
    <g>
      <line class="cls-17" x1="186.18" y1="132" x2="289" y2="132"/>
      <polygon points="189.35 136.65 172 132 189.35 127.35 189.35 136.65"/>
    </g>
    <g>
      <line class="cls-3" x1="163" y1="168" x2="208" y2="168"/>
      <line class="cls-3" x1="217" y1="168" x2="262" y2="168"/>
      <line class="cls-18" x1="208" y1="168" x2="217" y2="168"/>
    </g>
    <g>
      <line class="cls-3" x1="172" y1="174" x2="217" y2="174"/>
      <line class="cls-3" x1="226" y1="174" x2="271" y2="174"/>
      <line class="cls-18" x1="217" y1="174" x2="226" y2="174"/>
    </g>
    <g>
      <line class="cls-3" x1="181" y1="180" x2="226" y2="180"/>
      <line class="cls-3" x1="235" y1="180" x2="280" y2="180"/>
      <line class="cls-18" x1="226" y1="180" x2="235" y2="180"/>
    </g>
    <g>
      <line class="cls-3" x1="190" y1="186" x2="235" y2="186"/>
      <line class="cls-3" x1="244" y1="186" x2="289" y2="186"/>
      <line class="cls-18" x1="235" y1="186" x2="244" y2="186"/>
    </g>
    <g>
      <path class="cls-41" d="M163.48,154l305.52-.12c.53.71-305.54-.11-305.52.12h0Z"/>
      <g>
        <path class="cls-38" d="M163.48,118.22c95.73-.29,209.8-.29,305.52,0-95.73.29-209.8.29-305.52,0h0Z"/>
        <path class="cls-41" d="M163.42,118.22s305.58-.06,305.58-.06c.27.36-305.6-.06-305.58.06h0ZM163.54,118.22s305.46-.06,305.46-.06c.27.36-305.47-.06-305.46.06h0Z"/>
      </g>
      <g>
        <path class="cls-38" d="M163,100.22c95.73-.29,209.8-.29,305.52,0-95.73.29-209.8.29-305.52,0h0Z"/>
        <path class="cls-41" d="M162.94,100.22s305.58-.06,305.58-.06c.27.36-305.6-.06-305.58.06h0ZM163.06,100.22s305.46-.06,305.46-.06c.27.36-305.47-.06-305.46.06h0Z"/>
      </g>
      <g>
        <path class="cls-38" d="M163.48,81.78c95.73-.29,209.8-.29,305.52,0-95.73.29-209.8.29-305.52,0h0Z"/>
        <path class="cls-41" d="M163.42,81.78s305.58-.06,305.58-.06c.27.36-305.6-.06-305.58.06h0ZM163.54,81.78s305.46-.06,305.46-.06c.27.36-305.47-.06-305.46.06h0Z"/>
      </g>
      <g>
        <path class="cls-38" d="M163.48,45.78c95.73-.29,209.8-.29,305.52,0-95.73.29-209.8.29-305.52,0h0Z"/>
        <path class="cls-41" d="M163.42,45.78s305.58-.06,305.58-.06c.27.36-305.6-.06-305.58.06h0ZM163.54,45.78s305.46-.06,305.46-.06c.27.36-305.47-.06-305.46.06h0Z"/>
      </g>
    </g>
    <path class="cls-41" d="M597.79,55l231.21-.25c1.04,1.4-231.24-.21-231.21.25h0Z"/>
    <path class="cls-41" d="M127,73c.05-.1,33.54-63.09,33.59-63.18-.01-.08,77.16-.27,77.19-.33,48.99-.16,180.59-.34,231.23-.41,0,0,.92,0,.92,0v.92c.3,1.67-.17,188.29.04,189.96-77.43-.05-232-.25-309.41-.56-.1-.08-33.45-27.32-33.56-27.4,0,0,33.95,26.69,33.95,26.69,75.34-.58,231.67-.51,308.05-.65,0,0-.96.96-.96.96l.04-189s.92.92.92.92c-51.29-.07-181.69-.25-231.23-.41,0,0-77.07-.32-77.07-.32.5-.74-33.75,63-33.7,62.82h0Z"/>
    <rect class="cls-10" x="523" y="19" width="305.67" height="180"/>
    <rect class="cls-9" x="1" y="1" width="162" height="45"/>
    <text class="cls-30" transform="translate(13.69 20.11)"><tspan class="cls-32" x="0" y="0">D</tspan><tspan class="cls-33" x="10.11" y="0">AT</tspan><tspan class="cls-34" x="26.69" y="0">A</tspan><tspan class="cls-32" x="36.29" y="0" xml:space="preserve"> FROM </tspan><tspan class="cls-37" x="85.28" y="0">IN VIVO</tspan><tspan class="cls-32" x="136.62" y="0"> </tspan><tspan class="cls-32"><tspan x="18.14" y="16.8">EXPERIMENTS</tspan></tspan></text>
    <rect class="cls-9" x="487" y="10" width="108" height="45"/>
    <text class="cls-29" transform="translate(492.38 29.11)"><tspan x="0" y="0">PREPROCESS </tspan><tspan x="30.48" y="16.8">D</tspan><tspan class="cls-36" x="40.59" y="16.8">AT</tspan><tspan class="cls-39" x="57.18" y="16.8">A</tspan></text>
    <g>
      <line class="cls-23" x1="478" y1="82" x2="499.65" y2="82"/>
      <polygon points="496.73 91.97 514 82 496.73 72.03 496.73 91.97"/>
    </g>
    <g>
      <circle class="cls-20" cx="82" cy="127" r="72"/>
      <circle class="cls-22" cx="82" cy="127" r="27"/>
      <circle class="cls-22" cx="86.5" cy="86.5" r="4.5"/>
      <circle class="cls-21" cx="77.5" cy="176.5" r="4.5"/>
      <circle class="cls-6" cx="59.5" cy="167.5" r="4.5"/>
      <path class="cls-2" d="M118,140.5c0,12.43-10.07,22.5-22.5,22.5"/>
      <path class="cls-42" d="M82,64c56.83.29,85.75,68.19,46.37,109.37-24.87,26.04-67.88,26.05-92.75,0-39.4-41.24-10.49-109.04,46.38-109.38h0ZM82,64c-34.2-.21-62.65,28.82-61.49,63,.4,32.72,28.83,60.51,61.49,60,32.38.67,61.28-27.4,61.51-60,1.15-34.18-27.3-63.21-61.51-63h0Z"/>
      <line class="cls-12" x1="28" y1="127" x2="37" y2="136"/>
      <line class="cls-2" x1="55" y1="100" x2="64" y2="109"/>
      <line class="cls-1" x1="82" y1="154" x2="82" y2="163"/>
      <line class="cls-1" x1="109" y1="82" x2="118" y2="91"/>
      <line class="cls-1" x1="118" y1="109" x2="136" y2="127"/>
      <path class="cls-2" d="M46,118c0-14.91,12.09-27,27-27"/>
      <path class="cls-2" d="M37,118c0-19.88,16.12-36,36-36"/>
      <polyline class="cls-11" points="111.41 156.41 101.09 146.09 100 145"/>
      <path class="cls-2" d="M117.55,163c-5.68,5.57-13.46,9-22.05,9"/>
      <path class="cls-2" d="M127,140.5c0,4.83-1.09,9.41-3.03,13.5"/>
      <circle class="cls-13" cx="41.5" cy="149.5" r="4.5"/>
      <path class="cls-2" d="M37,91c8.21-10.93,21.28-18,36-18"/>
    </g>
    <path class="cls-41" d="M597.43,91l231.21-.25c1.04,1.4-231.24-.21-231.21.25h0Z"/>
    <path class="cls-41" d="M597.43,127l231.21-.25c1.04,1.4-231.24-.21-231.21.25h0Z"/>
    <path class="cls-41" d="M597.43,163l231.21-.25c1.04,1.4-231.24-.21-231.21.25h0Z"/>
    <g class="cls-27">
      <path class="cls-14" d="M487,129.59v16.98c0,1.05.83,1.89,1.85,1.89h104.31c1.02,0,1.85-.85,1.85-1.89v-16.98c0-1.05-.83-1.89-1.85-1.89h-104.31c-1.02,0-1.85.85-1.85,1.89Z"/>
      <path class="cls-14" d="M507.11,100.19l-19.56,26.75c-.23.31-.01.76.37.76h106.15c.38,0,.6-.45.37-.76l-19.56-26.75c-.09-.12-.22-.19-.37-.19h-67.04c-.15,0-.28.07-.37.19Z"/>
      <rect class="cls-19" x="554.5" y="134.62" width="33.75" height="6.92" rx="2" ry="2"/>
      <line class="cls-21" x1="547.75" y1="134.62" x2="547.75" y2="141.54"/>
      <line class="cls-21" x1="541" y1="134.62" x2="541" y2="141.54"/>
      <line class="cls-21" x1="534.25" y1="134.62" x2="534.25" y2="141.54"/>
      <ellipse class="cls-21" cx="497.12" cy="138.08" rx="3.38" ry="3.46"/>
      <path class="cls-14" d="M487,150.36v16.98c0,1.05.83,1.89,1.85,1.89h104.31c1.02,0,1.85-.85,1.85-1.89v-16.98c0-1.05-.83-1.89-1.85-1.89h-104.31c-1.02,0-1.85.85-1.85,1.89Z"/>
      <rect class="cls-19" x="554.5" y="155.38" width="33.75" height="6.92" rx="2" ry="2"/>
      <line class="cls-21" x1="547.75" y1="155.38" x2="547.75" y2="162.31"/>
      <line class="cls-21" x1="541" y1="155.38" x2="541" y2="162.31"/>
      <line class="cls-21" x1="534.25" y1="155.38" x2="534.25" y2="162.31"/>
      <ellipse class="cls-21" cx="497.12" cy="158.85" rx="3.38" ry="3.46"/>
      <path class="cls-14" d="M487,171.12v16.98c0,1.05.83,1.89,1.85,1.89h104.31c1.02,0,1.85-.85,1.85-1.89v-16.98c0-1.05-.83-1.89-1.85-1.89h-104.31c-1.02,0-1.85.85-1.85,1.89Z"/>
      <rect class="cls-19" x="554.5" y="176.15" width="33.75" height="6.92" rx="2" ry="2"/>
      <line class="cls-21" x1="547.75" y1="176.15" x2="547.75" y2="183.08"/>
      <line class="cls-21" x1="541" y1="176.15" x2="541" y2="183.08"/>
      <line class="cls-21" x1="534.25" y1="176.15" x2="534.25" y2="183.08"/>
      <ellipse class="cls-21" cx="497.12" cy="179.62" rx="3.38" ry="3.46"/>
    </g>
    <g>
      <line class="cls-11" x1="541" y1="91" x2="541" y2="109.39"/>
      <polygon class="cls-42" points="535.02 107.64 541 118 546.98 107.64 535.02 107.64"/>
    </g>
    <path class="cls-7" d="M568,86.5c0,2.48-1.01,4.73-2.64,6.36-1.63,1.62-3.88,2.64-6.36,2.64h-36c-4.97,0-9-4.03-9-9,0-2.48,1.01-4.73,2.64-6.36,1.63-1.63,3.88-2.64,6.36-2.64,0-4.97,4.03-9,9-9,2.4,0,4.57.94,6.19,2.46,2.3-4.15,6.73-6.96,11.81-6.96,7.45,0,13.5,6.05,13.5,13.5,0,.39-.02.79-.05,1.17,2.72,1.55,4.55,4.47,4.55,7.83Z"/>
  </g>
</svg>